<svg id="Layer_1" data-name="Layer 1" xmlns="http://www.w3.org/2000/svg" xmlns:xlink="http://www.w3.org/1999/xlink" viewBox="0 0 461.56 151.66"><defs><style>.cls-1{fill:url(#linear-gradient);}.cls-2{fill:url(#linear-gradient-2);}.cls-3{font-size:72.21px;fill:#2f66a9;font-family:Montserrat-Black, Montserrat;font-weight:800;letter-spacing:0.15em;}.cls-4{font-size:36px;font-family:MyriadPro-Regular, Myriad Pro;letter-spacing:0.15em;}.cls-5{letter-spacing:0.15em;}.cls-6{letter-spacing:0.14em;}.cls-7{letter-spacing:0.15em;}.cls-8{letter-spacing:0.15em;}</style><linearGradient id="linear-gradient" x1="277.26" y1="507.99" x2="373.21" y2="507.99" gradientUnits="userSpaceOnUse"><stop offset="0" stop-color="#121210"/><stop offset="1" stop-color="#398ad7"/></linearGradient><linearGradient id="linear-gradient-2" x1="325.23" y1="586.72" x2="325.23" y2="427.67" xlink:href="#linear-gradient"/></defs><title>reborn</title><path class="cls-1" d="M301,432.16c34.11,29,53,57.32,45.72,90,7.26-8,11.61-23.22,10.89-37.74,18.86,26.85,26.84,68.94-12.34,99.41C359,541,309,532.29,326.37,493.84c-23.22,26.84-23,52.2-14.15,70.26-12.58-6.13-17.58-14.19-22.42-24.83-3.54,17.41,3.55,33.86,11.18,44.54C238,536.36,322.74,479.32,301,432.16Z" transform="translate(-277.26 -432.16)"/><path class="cls-2" d="M301,432.16c34.11,29,53,57.32,45.72,90,7.26-8,11.61-23.22,10.89-37.74,18.86,26.85,26.84,68.94-12.34,99.41C359,541,309,532.29,326.37,493.84c-23.22,26.84-23,52.2-14.15,70.26-12.58-6.13-17.58-14.19-22.42-24.83-3.54,17.41,3.55,33.86,11.18,44.54C238,536.36,322.74,479.32,301,432.16Z" transform="translate(-277.26 -432.16)"/><text class="cls-3" transform="translate(112.52 83.15)">Reborn</text><text class="cls-4" transform="translate(119.63 117.38)">D<tspan class="cls-5" x="29.52" y="0">e</tspan><tspan class="cls-6" x="52.96" y="0">v</tspan><tspan class="cls-5" x="75.31" y="0">elopme</tspan><tspan class="cls-7" x="222.55" y="0">n</tspan><tspan class="cls-8" x="247.79" y="0">t</tspan></text></svg>